#!OML:ASF H:\Terrain\Patient Classification 1\Walking\liu\liu.ASF
:FULLY-SPECIFIED
:DEGREES
33
root 11.975625 23.572350 -48.230999 11.348580 -12.356475 -11.113500
lowerback -12.390165 2.413860 5.879745
upperback -1.549005 2.457405 5.547345
thorax 5.345640 1.262283 2.727675
lowerneck -30.807449 -6.788415 -17.529150
upperneck 24.468750 -8.706600 21.756599
head 13.983419 -2.890035 9.311310
rclavicle 0.000000 0.000000
rhumerus -66.582001 31.217701 -139.597809
rradius 91.122902
rwrist -44.847752
rhand -44.794201 -46.575901
rfingers 10.687531
rthumb -4.777470 -91.509903
lclavicle 0.000000 0.000000
lhumerus -64.720055 -12.517470 136.852646
lradius 38.420700
lwrist 4.441620
lhand -16.972200 -39.138752
lfingers 10.687531
lthumb 22.075800 5.047590
rfemur 28.884150 10.542015 46.186199
rtibia 0.000000
rfoot -15.450300 -0.715053
rtoes -46.845150
lfemur -61.504349 8.234310 -13.183470
ltibia 36.260250
lfoot -13.154760 16.950901
ltoes -22.184401
34
root 12.013935 23.587049 -47.974499 11.329590 -12.967665 -10.950254
lowerback -12.547636 2.429835 5.393085
upperback -1.463610 2.500410 5.741355
thorax 5.502765 1.277094 3.214575
lowerneck -31.040100 -6.767580 -17.721149
upperneck 24.509399 -8.586195 21.704849
head 14.024611 -2.842905 9.346020
rclavicle -0.000000 -0.000000
rhumerus -66.838654 31.425299 -139.650452
rradius 90.781952
rwrist -44.382000
rhand -44.937302 -46.783051
rfingers 10.687531
rthumb -4.915635 -91.714951
lclavicle -0.000000 -0.000000
lhumerus -64.903503 -11.972820 136.999207
lradius 38.055450
lwrist 3.766845
lhand -13.028955 -35.270550
lfingers 10.687531
lthumb 25.873049 8.611230
rfemur 29.722200 10.837305 45.624901
rtibia -0.000000
rfoot -14.603790 -0.429740
rtoes -45.973499
lfemur -61.862698 9.575624 -14.013720
ltibia 37.891499
lfoot -9.335731 16.719299
ltoes -25.446001
35
root 12.058260 23.587200 -47.723400 11.389710 -13.158810 -10.672155
lowerback -12.868501 2.334285 4.873110
upperback -1.332219 2.390580 5.854890
thorax 5.802480 1.215932 3.626130
lowerneck -31.199100 -6.755610 -17.899500
upperneck 24.145351 -8.486970 21.836851
head 13.923824 -2.791635 9.428415
rclavicle 0.000000 0.000000
rhumerus -66.927452 31.419451 -139.669647
rradius 90.445801
rwrist -43.774502
rhand -45.542099 -48.687752
rfingers 10.687531
rthumb -5.499750 -93.610046
lclavicle 0.000000 0.000000
lhumerus -65.212051 -11.754945 137.292908
lradius 38.118000
lwrist 3.445665
lhand -13.984574 -34.902298
lfingers 10.687531
lthumb 24.953251 9.058395
rfemur 30.612150 10.741995 44.945702
rtibia -0.000000
rfoot -14.252340 -0.066761
rtoes -46.627499
lfemur -62.483101 10.457520 -14.911245
ltibia 39.767700
lfoot -6.240540 15.892050
ltoes -19.325401
36
root 12.107700 23.544300 -47.480549 11.490105 -12.932759 -10.470420
lowerback -13.035376 2.167440 4.505190
upperback -1.358086 2.193435 5.901420
thorax 5.861565 1.112304 3.862605
lowerneck -31.442852 -6.795840 -17.558250
upperneck 24.033451 -8.530710 21.469200
head 13.911736 -2.819835 9.223530
rclavicle -0.000000 -0.000000
rhumerus -66.949951 31.377899 -139.930511
rradius 89.460747
rwrist -43.333649
rhand -46.050148 -49.547401
rfingers 10.687531
rthumb -5.990295 -94.460846
lclavicle -0.000000 -0.000000
lhumerus -65.668648 -12.115665 137.825699
lradius 38.189850
lwrist 3.670170
lhand -22.689301 -40.427700
lfingers 10.687531
lthumb 16.564501 4.106505
rfemur 31.557301 10.261425 44.378098
rtibia -0.000000
rfoot -13.382639 -0.055932
rtoes -36.543301
lfemur -63.318298 10.788600 -15.582750
ltibia 41.917950
lfoot -3.643140 14.920770
ltoes -10.770720
37
root 12.155716 23.516850 -47.230198 11.617800 -12.670381 -10.465830
lowerback -13.225695 1.992465 4.418085
upperback -1.413311 1.957845 5.965710
thorax 5.912025 0.993519 3.955080
lowerneck -31.744499 -6.829965 -17.284649
upperneck 24.168900 -8.588070 21.200100
head 14.002484 -2.844795 9.073950
rclavicle -0.000000 -0.000000
rhumerus -67.051956 31.427851 -140.240845
rradius 88.266151
rwrist -43.096649
rhand -45.052799 -45.174000
rfingers 10.687531
rthumb -5.027130 -90.104103
lclavicle -0.000000 -0.000000
lhumerus -65.992500 -12.266100 138.112488
lradius 38.072998
lwrist 3.733050
lhand -13.553475 -33.055500
lfingers 10.687531
lthumb 25.368149 10.869990
rfemur 32.409298 9.764940 44.036697
rtibia -0.000000
rfoot -12.505470 -1.594875
rtoes 5.427255
lfemur -64.164444 11.398621 -16.227900
ltibia 44.141403
lfoot -1.930695 14.122604
ltoes -10.414080
38
root 12.217064 23.514299 -46.968300 11.222505 -12.193934 -10.027065
lowerback -12.978510 1.741005 4.189410
upperback -1.380984 1.663425 5.844135
thorax 5.812155 0.844954 3.914460
lowerneck -31.708199 -6.845490 -17.419950
upperneck 23.954849 -8.587470 21.375900
head 13.933365 -2.838135 9.154905
rclavicle -0.000000 0.000000
rhumerus -67.404449 31.113300 -140.414246
rradius 87.474754
rwrist -42.514198
rhand -44.308052 -44.810699
rfingers 10.687531
rthumb -4.307895 -89.751305
lclavicle -0.000000 0.000000
lhumerus -66.241646 -12.362940 138.284546
lradius 37.687500
lwrist 3.742095
lhand -3.915675 -30.608099
lfingers 10.687531
lthumb 34.631699 12.347115
rfemur 33.636902 8.951190 43.268700
rtibia 0.000000
rfoot -9.480375 0.640948
rtoes -35.359802
lfemur -64.410301 11.552685 -17.322300
ltibia 46.318501
lfoot -1.079019 13.631790
ltoes -13.173824
39
root 12.300390 23.506950 -46.703102 9.997605 -11.004330 -9.174405
lowerback -11.921640 1.165185 3.718245
upperback -1.209620 0.996215 5.684475
thorax 5.411295 0.507938 3.914280
lowerneck -31.937550 -6.773940 -17.630100
upperneck 24.086700 -8.405100 21.351000
head 13.997444 -2.759895 9.215250
rclavicle -0.000000 -0.000000
rhumerus -67.793251 30.863098 -140.496002
rradius 86.731949
rwrist -41.871300
rhand -44.857349 -50.406151
rfingers 10.687531
rthumb -4.838460 -95.339249
lclavicle -0.000000 -0.000000
lhumerus -66.448502 -12.109981 138.369003
lradius 37.132797
lwrist 3.086085
lhand 8.020305 -30.853050
lfingers 10.687531
lthumb 46.051201 10.334055
rfemur 35.587349 7.320000 42.116550
rtibia -0.000000
rfoot -10.741170 -2.668635
rtoes 15.586050
lfemur -63.759003 10.367775 -18.512699
ltibia 48.287697
lfoot -0.441744 13.151055
ltoes -12.058455
40
root 12.322544 23.523750 -46.459049 11.112885 -12.626265 -9.489585
lowerback -12.816959 1.747005 3.557970
upperback -1.515150 1.742925 5.927280
thorax 5.565765 0.874355 4.358445
lowerneck -32.128952 -6.917505 -17.993401
upperneck 24.211048 -8.464725 21.271950
head 14.090295 -2.811585 9.245010
rclavicle 0.000000 -0.000000
rhumerus -68.028152 30.272100 -140.311203
rradius 85.803001
rwrist -41.309402
rhand -45.483299 -54.045448
rfingers 10.687531
rthumb -5.442990 -98.968803
lclavicle 0.000000 -0.000000
lhumerus -66.442650 -11.797620 138.408905
lradius 36.407402
lwrist 1.896480
lhand 12.424801 -30.477900
lfingers 10.687531
lthumb 50.244450 9.863310
rfemur 35.026199 8.818170 41.855999
rtibia -0.000000
rfoot -8.080860 0.156396
rtoes -25.094250
lfemur -64.802246 12.111480 -18.555300
ltibia 50.090401
lfoot 0.657696 12.603661
ltoes -8.242290
41
root 12.375151 23.521950 -46.212898 11.514315 -13.284689 -9.747855
lowerback -13.034386 2.298165 3.903045
upperback -1.734765 2.435010 6.105480
thorax 5.440620 1.221495 4.433040
lowerneck -31.419600 -7.506405 -19.526701
upperneck 23.583302 -9.000210 22.088100
head 13.908239 -3.104655 9.707145
rclavicle -0.000000 -0.000000
rhumerus -68.420700 29.044651 -139.712997
rradius 85.047302
rwrist -40.501801
rhand -45.692249 -53.346001
rfingers 10.687531
rthumb -5.644635 -98.265747
lclavicle -0.000000 -0.000000
lhumerus -66.276596 -11.914230 138.833099
lradius 35.314800
lwrist 0.701112
lhand 10.120155 -28.460400
lfingers 10.687531
lthumb 48.051899 12.338070
rfemur 35.212200 9.290535 41.623199
rtibia -0.000000
rfoot -5.619105 1.426608
rtoes -36.435001
lfemur -65.431198 13.117155 -18.848549
ltibia 51.995399
lfoot 1.485628 11.595751
ltoes -6.327600
